<?xml version="1.0" encoding="utf-8"?>
<!-- Generator: Adobe Illustrator 26.3.1, SVG Export Plug-In . SVG Version: 6.00 Build 0)  -->
<svg version="1.1" id="Layer_1" xmlns="http://www.w3.org/2000/svg" xmlns:xlink="http://www.w3.org/1999/xlink" x="0px" y="0px"
	 viewBox="0 0 775.06 777.18" style="enable-background:new 0 0 775.06 777.18;" xml:space="preserve">
<style type="text/css">
	.st0{fill:#0A0A09;}
</style>
<path class="st0" d="M759.89,679.74c-3.37-10.8-9.88-19.64-17.35-27.86c-5.17-5.69-10.86-10.84-16.49-16.05
	c-6.75-6.25-13.03-12.97-19.52-19.48c-53.41-53.48-106.85-106.92-160.29-160.38c-0.62-0.62-1.21-1.29-1.87-1.86
	c-1.64-1.41-1.66-2.81-0.45-4.6c5.98-8.81,11.36-17.96,16.22-27.45c6.07-11.84,11.25-24.03,15.63-36.58
	c2.79-8.01,5.22-16.12,7.27-24.34c2.35-9.38,4.27-18.85,5.55-28.44c0.59-4.43,1.24-8.84,1.58-13.31c0.46-5.97,1.22-11.91,1.22-17.91
	c0-6.32-0.03-12.64,0.01-18.96c0.05-7.85-0.75-15.65-1.68-23.41c-1.33-11.1-3.33-22.09-5.98-32.98
	c-2.94-12.07-6.65-23.87-11.32-35.36c-6.09-15-13.71-29.21-22.23-42.99c-6.07-9.81-12.47-19.38-19.61-28.41
	c-9.49-12-20.02-23.03-31.5-33.18c-10.51-9.29-21.66-17.72-33.46-25.27c-14.04-8.98-28.86-16.5-44.32-22.76
	c-10.46-4.23-21.19-7.66-32.06-10.64c-5.85-1.61-11.78-2.96-17.75-4.01c-7.47-1.32-14.97-2.46-22.52-3.27
	c-8.1-0.87-16.18-1.81-24.33-1.95c-12.98-0.31-25.96-0.32-38.95,0c-9.69-0.07-19.28,1.23-28.85,2.43
	c-10.45,1.32-20.81,3.34-31.07,5.78c-16.35,3.89-32.34,8.94-47.81,15.56c-10.44,4.47-20.64,9.44-30.45,15.18
	c-11.61,6.79-22.62,14.45-33,23.02c-7.16,5.91-13.97,12.2-20.02,19.24c-6.72,7.82-13.06,15.94-18.83,24.52
	c-7.06,10.5-13.42,21.39-18.92,32.78c-7.25,15-13.13,30.51-17.81,46.51c-4.39,14.99-7.49,30.23-9.63,45.66
	c-1.11,7.97-2.02,15.99-2.16,24.07c-0.06,3.71-0.09,7.47-0.69,11.16c0,6.72,0,13.44,0,20.16c0.45,0.57,0.21,1.23,0.24,1.85
	c0.25,5.18,0.27,10.39,0.73,15.54c0.67,7.45,1.53,14.9,2.56,22.32c0.92,6.57,2.1,13.1,3.32,19.6c2.04,10.84,4.94,21.5,8.14,32.05
	c3.48,11.48,7.77,22.67,12.88,33.55c6.96,14.81,15.3,28.81,25.08,41.91c9.97,13.35,21.07,25.68,33.38,36.96
	c7.15,6.55,14.6,12.69,22.31,18.53c11.05,8.36,22.73,15.75,34.91,22.33c7.53,4.07,15.21,7.84,23.07,11.21
	c12.13,5.19,24.54,9.62,37.26,13.14c8.16,2.26,16.4,4.23,24.75,5.62c7.87,1.31,15.75,2.5,23.73,3.17c7.41,0.62,14.8,1.05,22.22,1.24
	c4.87,0.12,9.74-0.28,14.6-0.38c5.13-0.11,10.19-0.82,15.27-1.29c8.11-0.74,16.11-2.27,24.1-3.86c5.72-1.14,11.24-3.14,16.99-4.09
	c12.6-2.07,24.33-6.52,35.66-12.28c10.26-5.22,20.29-10.88,30.7-15.81c7.03-3.32,14.19-6.22,21.89-7.65
	c2.89-0.54,5.1,0.03,7.31,2.24c66.85,66.7,133.2,133.92,200.5,200.17c3.45,3.4,7.44,6.01,11.77,8.15c5.66,2.8,11.64,4.25,17.92,4.57
	c3.04,0,6.08,0,9.12,0c3.03-0.64,6.17-0.3,9.18-1.1c10.42-2.76,19.82-7.46,27.83-14.75c8.6-7.82,14.58-17.21,17.14-28.67
	c0.44-1.97-0.07-3.97,0.55-5.88c0-4.32,0-8.64,0-12.96C761.2,686.43,760.91,683.04,759.89,679.74z M502.9,303.29
	c-0.35,8.55-1.18,17.04-2.57,25.5c-0.89,5.43-2.01,10.81-3.29,16.16c-1.42,5.95-3.25,11.8-5.32,17.56
	c-1.77,4.93-3.81,9.75-5.94,14.54c-3.27,7.34-7.15,14.34-11.36,21.16c-3.55,5.74-7.17,11.44-11.22,16.86
	c-10.47,14.03-22.67,26.33-36.51,37.04c-8.05,6.22-16.56,11.77-25.45,16.68c-7.78,4.3-15.85,8.05-24.15,11.29
	c-9.12,3.57-18.42,6.53-27.94,8.78c-5.81,1.38-11.71,2.38-17.61,3.37c-5.93,0.99-11.91,1.15-17.84,1.91
	c-3.97,0.51-7.99,0.18-11.98,0.31c-7.53,0.25-15-0.65-22.48-1.3c-4.3-0.37-8.55-1.1-12.77-1.85c-4.77-0.86-9.51-1.98-14.21-3.24
	c-6.08-1.62-12.08-3.49-17.92-5.78c-8.56-3.35-17.03-6.97-25.18-11.27c-8.22-4.34-16.08-9.24-23.59-14.73
	c-9.13-6.68-17.53-14.17-25.37-22.32c-13.03-13.53-23.8-28.72-32.66-45.24c-4.46-8.32-8.25-16.96-11.52-25.85
	c-3.16-8.6-5.83-17.33-7.81-26.25c-2.06-9.27-3.47-18.65-4.22-28.15c-0.53-6.72-0.73-13.42-0.57-20.13
	c0.18-7.51,0.91-14.98,2.03-22.42c0.83-5.53,1.85-11.01,3.21-16.42c2.04-8.09,4.36-16.09,7.26-23.93
	c2.49-6.72,5.28-13.29,8.44-19.71c4.43-8.99,9.54-17.59,15.31-25.78c11.5-16.34,25.06-30.77,40.61-43.31
	c7.31-5.89,15.13-11.04,23.3-15.68c6.36-3.62,12.9-6.91,19.63-9.75c7.02-2.96,14.18-5.58,21.51-7.71c4.13-1.2,8.28-2.32,12.47-3.28
	c3.34-0.76,6.71-1.39,10.06-2.07c4.23-0.86,8.53-1.09,12.76-1.91c1.95-0.38,3.98-0.35,5.97-0.51c12.3-1.02,24.58-0.97,36.89,0.06
	c4.94,0.41,9.84,1.12,14.73,1.81c5.12,0.73,10.18,1.93,15.21,3.15c6.26,1.52,12.42,3.4,18.52,5.52c7.12,2.48,14.07,5.37,20.83,8.67
	c10.6,5.16,20.62,11.31,29.96,18.5c13.38,10.29,26,21.4,36.58,34.67c7.64,9.58,14.39,19.74,20.19,30.53
	c5.05,9.39,9.23,19.17,12.74,29.21c1.84,5.25,3.37,10.61,4.77,16.01c1.36,5.25,2.48,10.54,3.47,15.85
	c1.14,6.12,1.89,12.32,2.42,18.53C502.99,286.65,503.24,294.97,502.9,303.29z"/>
</svg>
